<svg id="Layer_1" data-name="Layer 1" xmlns="http://www.w3.org/2000/svg" viewBox="0 0 1280 450"><defs><style>.cls-1{fill:none;stroke:#000;stroke-width:0.5px;}.cls-1,.cls-12{stroke-miterlimit:10;}.cls-2{fill:#eecf95;}.cls-3{fill:#f0ecdc;}.cls-4{fill:#96524d;}.cls-5{fill:#ebcd70;}.cls-6{fill:#fff;}.cls-7{fill:#333;}.cls-8{fill:#760a30;}.cls-9{fill:#e39e49;}.cls-10,.cls-12{fill:#fcc21b;}.cls-11{fill:#4285f4;}.cls-12{stroke:#e39e49;stroke-linecap:round;stroke-width:0.87px;}</style></defs><title>Background Web Art</title><line class="cls-1" x1="752" y1="79" x2="752" y2="371"/><polygon class="cls-2" points="1280 -0.25 1280 449.75 557.44 449.75 739.17 -0.25 1280 -0.25"/><polygon class="cls-3" points="739.17 -0.25 557.44 449.75 0 449.75 0 -0.25 739.17 -0.25"/><path d="M818.77,151.37h9.12l-.76,3.21h-2.54l-5,21.71H829a1.69,1.69,0,0,0,1.23-.43,2.13,2.13,0,0,0,.58-1.06l.87-3.65h3.73l-1.93,8.32H812.54l.72-3.19h2.48l5-21.71H818Z"/><path d="M845.59,170.52c0,.17,0,.32,0,.44a3.44,3.44,0,0,0,0,.35,6.07,6.07,0,0,0,.38,2.17,5.29,5.29,0,0,0,1.06,1.73,4.86,4.86,0,0,0,1.61,1.15,5,5,0,0,0,2,.42,6.83,6.83,0,0,0,2.83-.6,5.91,5.91,0,0,0,2.25-1.75l2.74,2a7.87,7.87,0,0,1-1.5,1.5,9.64,9.64,0,0,1-1.93,1.14,11,11,0,0,1-2.25.72,11.87,11.87,0,0,1-2.44.25,9.22,9.22,0,0,1-3.33-.59,7.76,7.76,0,0,1-4.52-4.5,9.9,9.9,0,0,1-.66-3.72,12,12,0,0,1,.84-4.5,11.41,11.41,0,0,1,2.33-3.67,11,11,0,0,1,3.53-2.47,10.72,10.72,0,0,1,4.41-.91,8.17,8.17,0,0,1,3.27.62,7.58,7.58,0,0,1,2.44,1.64,6.89,6.89,0,0,1,1.52,2.35,7.51,7.51,0,0,1,.52,2.74,16,16,0,0,1-.1,1.83q-.1.88-.25,1.64Zm6.86-7.67a6.09,6.09,0,0,0-2.08.35,6.29,6.29,0,0,0-1.77,1,7.3,7.3,0,0,0-1.41,1.48,8.33,8.33,0,0,0-1,1.85h10.94a5.61,5.61,0,0,0-.31-2,3.77,3.77,0,0,0-.95-1.46,4.07,4.07,0,0,0-1.49-.88A6,6,0,0,0,852.45,162.84Z"/><path d="M879,178.17a9.86,9.86,0,0,1-2.49,1.23,8.48,8.48,0,0,1-2.59.4,7.15,7.15,0,0,1-2.95-.61,7.48,7.48,0,0,1-2.38-1.67A7.85,7.85,0,0,1,867,175a8.11,8.11,0,0,1-.58-3.09,12.57,12.57,0,0,1,.95-4.93,11.89,11.89,0,0,1,2.57-3.86,11.54,11.54,0,0,1,3.78-2.5,11.92,11.92,0,0,1,4.59-.89,8.05,8.05,0,0,1,2.61.42,6,6,0,0,1,2,1.08l.24-1h3.73l-3.71,16h3l-.72,3.19h-6.73Zm-4.21-1.56a6.13,6.13,0,0,0,1.4-.17,9.44,9.44,0,0,0,1.36-.43,8.58,8.58,0,0,0,1.22-.6,8,8,0,0,0,1-.71l2.39-10.27a3.74,3.74,0,0,0-1.5-1A6.88,6.88,0,0,0,878,163a7.22,7.22,0,0,0-2.82.58,7.64,7.64,0,0,0-2.48,1.69,8.58,8.58,0,0,0-1.78,2.71,9.17,9.17,0,0,0-.69,3.64,6.29,6.29,0,0,0,.33,2.12,4.6,4.6,0,0,0,.93,1.58,3.91,3.91,0,0,0,1.44,1A4.84,4.84,0,0,0,874.76,176.62Z"/><path d="M909.68,165.57h-3.76l.54-2.26a5.05,5.05,0,0,0-3.06.92,7.15,7.15,0,0,0-2.08,2.42l-2.22,9.64h3.19l-.72,3.19h-7l3.71-16h-3.67l.76-3.19h7.25L902,162.9a11,11,0,0,1,1.11-1.1,7.77,7.77,0,0,1,1.25-.88,6.69,6.69,0,0,1,1.37-.58,5,5,0,0,1,1.44-.21l1.15,0,1,.06q.55,0,1.51.18Z"/><path d="M918,160.27h7.25l-.46,2a10.41,10.41,0,0,1,2.88-1.71,9,9,0,0,1,3.31-.61,7.63,7.63,0,0,1,2.68.44,4.57,4.57,0,0,1,2,1.35,4.74,4.74,0,0,1,1,2.26,8,8,0,0,1-.17,3.15l-2.11,9.16H937l-.72,3.19h-6.49l2.76-11.88a3.86,3.86,0,0,0-.33-3.3,3.43,3.43,0,0,0-2.89-1.11,6.28,6.28,0,0,0-2.74.62,9.6,9.6,0,0,0-2.47,1.73l-3.21,13.94h-3.76l3.71-16h-3.67Z"/><path d="M946.58,160.27h7.17l-3.71,16h3.08l-.72,3.19h-6.84l3.71-16h-3.45Zm3.54-6.77a2.33,2.33,0,0,1,.19-.95,2.4,2.4,0,0,1,.53-.77,2.6,2.6,0,0,1,.78-.52,2.38,2.38,0,0,1,1-.19,2.33,2.33,0,0,1,.95.19,2.47,2.47,0,0,1,.77.52,2.5,2.5,0,0,1,.52.77,2.33,2.33,0,0,1,.19.95,2.39,2.39,0,0,1-.19,1,2.7,2.7,0,0,1-.52.8,2.45,2.45,0,0,1-.77.55,2.24,2.24,0,0,1-.95.2,2.29,2.29,0,0,1-1-.2,2.57,2.57,0,0,1-1.31-1.34A2.39,2.39,0,0,1,950.13,153.5Z"/><path d="M962.84,160.27h7.25l-.46,2a10.41,10.41,0,0,1,2.88-1.71,9,9,0,0,1,3.31-.61,7.63,7.63,0,0,1,2.68.44,4.57,4.57,0,0,1,2,1.35,4.74,4.74,0,0,1,1,2.26,8,8,0,0,1-.17,3.15l-2.11,9.16h2.73l-.72,3.19h-6.49l2.76-11.88a3.86,3.86,0,0,0-.33-3.3,3.43,3.43,0,0,0-2.89-1.11,6.28,6.28,0,0,0-2.74.62,9.6,9.6,0,0,0-2.47,1.73l-3.21,13.94H962l3.71-16h-3.67Z"/><path d="M1002.26,178.28a8.05,8.05,0,0,1-2.4,1.17,9.65,9.65,0,0,1-2.66.35,7.15,7.15,0,0,1-2.95-.61,7.48,7.48,0,0,1-2.38-1.67,7.85,7.85,0,0,1-1.59-2.49,8.11,8.11,0,0,1-.58-3.09,12.57,12.57,0,0,1,.95-4.93,11.89,11.89,0,0,1,2.57-3.86,11.54,11.54,0,0,1,3.78-2.5,11.92,11.92,0,0,1,4.59-.89,8.05,8.05,0,0,1,2.61.42,6,6,0,0,1,2,1.08l.24-1h3.76l-4.41,19a16.13,16.13,0,0,1-1.48,4.11,9.11,9.11,0,0,1-2.26,2.77,8.64,8.64,0,0,1-3.11,1.58,14.77,14.77,0,0,1-4,.5,14,14,0,0,1-2.11-.17,13.31,13.31,0,0,1-2.14-.51,11.12,11.12,0,0,1-2-.86,7.41,7.41,0,0,1-1.63-1.22l2.39-2.71a5.37,5.37,0,0,0,1.08.88,8.11,8.11,0,0,0,1.39.69,9.45,9.45,0,0,0,1.6.46,8.84,8.84,0,0,0,1.71.17,9.56,9.56,0,0,0,2.43-.29,5,5,0,0,0,2-1,6.23,6.23,0,0,0,1.5-1.93A14.41,14.41,0,0,0,1002.26,178.28Zm-4.19-1.67a7,7,0,0,0,2.71-.52,8.74,8.74,0,0,0,2.32-1.41l2.37-10.23a3.81,3.81,0,0,0-1.5-1.06,6.74,6.74,0,0,0-2.67-.44,7.22,7.22,0,0,0-2.82.58,7.64,7.64,0,0,0-2.48,1.69,8.58,8.58,0,0,0-1.78,2.71,9.17,9.17,0,0,0-.69,3.64,6.29,6.29,0,0,0,.33,2.12,4.6,4.6,0,0,0,.93,1.58,3.91,3.91,0,0,0,1.44,1A4.84,4.84,0,0,0,998.07,176.62Z"/><path d="M1030.38,150.63h7.27l-2.5,10.84a9,9,0,0,1,5.15-1.71,7.15,7.15,0,0,1,2.95.61,7.48,7.48,0,0,1,2.38,1.67,7.84,7.84,0,0,1,1.59,2.49,8.11,8.11,0,0,1,.58,3.09,13.09,13.09,0,0,1-.43,3.39,12.25,12.25,0,0,1-1.21,2.95,11.54,11.54,0,0,1-4.28,4.27,12,12,0,0,1-6,1.57,8,8,0,0,1-2.65-.43,6.14,6.14,0,0,1-2-1.09l-.28,1.19h-3.71l5.9-25.65h-3.56Zm9,12.33a7.09,7.09,0,0,0-2.64.53,9,9,0,0,0-2.44,1.46L1032,175.11a3.8,3.8,0,0,0,1.51,1.06,6.88,6.88,0,0,0,2.7.44A7.22,7.22,0,0,0,1039,176a7.74,7.74,0,0,0,2.49-1.69,8.54,8.54,0,0,0,1.79-2.7A9.12,9.12,0,0,0,1044,168a6.29,6.29,0,0,0-.33-2.12,4.52,4.52,0,0,0-.94-1.58,4.11,4.11,0,0,0-1.45-1A4.74,4.74,0,0,0,1039.42,163Z"/><path d="M1055.07,160.27h7l-.76,3.19h-1.46L1061,175.3l7.56-11.84H1067l.76-3.19h7l-.76,3.19h-1.61L1058.66,185h1.87l-.8,3.19h-7.6l.8-3.19h1.87l3.43-5.38-2.11-16.18h-1.82Z"/><path d="M1105.83,150.63h6.93l-5.91,25.65H1110l-.72,3.19h-6.91l.28-1.24a10.7,10.7,0,0,1-2.21,1.17,6.89,6.89,0,0,1-2.49.44,7.53,7.53,0,0,1-3.08-.63,7.75,7.75,0,0,1-2.49-1.74,8.19,8.19,0,0,1-1.68-2.62,8.63,8.63,0,0,1-.61-3.27,12.12,12.12,0,0,1,.91-4.73,11.81,11.81,0,0,1,2.47-3.76,11.4,11.4,0,0,1,3.65-2.49,11.14,11.14,0,0,1,4.46-.9,8.69,8.69,0,0,1,2.76.43,7.32,7.32,0,0,1,2.22,1.17l1.72-7.47h-3.24Zm-7,26a6.3,6.3,0,0,0,2.42-.52,7.13,7.13,0,0,0,2.27-1.52l2.3-10a4.49,4.49,0,0,0-1.78-1.23,7.23,7.23,0,0,0-2.67-.44,6.8,6.8,0,0,0-2.73.58,7.36,7.36,0,0,0-2.38,1.66,8.29,8.29,0,0,0-1.68,2.61,8.85,8.85,0,0,0-.64,3.43,6.49,6.49,0,0,0,.36,2.23,4.89,4.89,0,0,0,1,1.69,4.47,4.47,0,0,0,1.55,1.08A5,5,0,0,0,1098.84,176.62Z"/><path d="M1117,171.15a11.6,11.6,0,0,1,1.53-5.8,11.13,11.13,0,0,1,1.76-2.32,11.43,11.43,0,0,1,2.27-1.78,11.22,11.22,0,0,1,2.66-1.15,10.59,10.59,0,0,1,2.94-.41,9.15,9.15,0,0,1,3.54.68,8.53,8.53,0,0,1,4.68,4.62,8.57,8.57,0,0,1,.68,3.4,11.64,11.64,0,0,1-.41,3.1,11.75,11.75,0,0,1-2.89,5.1,10.79,10.79,0,0,1-2.27,1.8,11.34,11.34,0,0,1-2.68,1.15,10.76,10.76,0,0,1-3,.41,9.06,9.06,0,0,1-3.54-.68,8.63,8.63,0,0,1-2.8-1.86,8.43,8.43,0,0,1-1.84-2.79A9,9,0,0,1,1117,171.15Zm3.87-.26a7,7,0,0,0,.38,2.36,5.28,5.28,0,0,0,1.07,1.82,4.77,4.77,0,0,0,1.65,1.17,5.26,5.26,0,0,0,2.11.42,6.26,6.26,0,0,0,2.64-.59,7.18,7.18,0,0,0,2.27-1.65,8.26,8.26,0,0,0,1.58-2.54,8.6,8.6,0,0,0,.6-3.26,6.48,6.48,0,0,0-.4-2.34,5.33,5.33,0,0,0-1.1-1.78,4.83,4.83,0,0,0-1.66-1.14,5.36,5.36,0,0,0-2.08-.4,6.25,6.25,0,0,0-2.64.58,7.18,7.18,0,0,0-2.25,1.63,8,8,0,0,0-1.58,2.51A8.46,8.46,0,0,0,1120.84,170.89Z"/><path d="M1145.22,160.27h7.17l-3.71,16h3.08l-.72,3.19h-6.84l3.71-16h-3.45Zm3.54-6.77a2.33,2.33,0,0,1,.19-.95,2.4,2.4,0,0,1,.53-.77,2.6,2.6,0,0,1,.78-.52,2.38,2.38,0,0,1,1-.19,2.33,2.33,0,0,1,.95.19,2.47,2.47,0,0,1,.77.52,2.5,2.5,0,0,1,.52.77,2.33,2.33,0,0,1,.19.95,2.39,2.39,0,0,1-.19,1,2.7,2.7,0,0,1-.52.8,2.45,2.45,0,0,1-.77.55,2.24,2.24,0,0,1-.95.2,2.29,2.29,0,0,1-1-.2,2.57,2.57,0,0,1-1.31-1.34A2.39,2.39,0,0,1,1148.76,153.5Z"/><path d="M1161.47,160.27h7.25l-.46,2a10.41,10.41,0,0,1,2.88-1.71,9,9,0,0,1,3.31-.61,7.63,7.63,0,0,1,2.68.44,4.57,4.57,0,0,1,2,1.35,4.74,4.74,0,0,1,1,2.26,8,8,0,0,1-.17,3.15l-2.11,9.16h2.73l-.72,3.19h-6.49l2.76-11.88a3.86,3.86,0,0,0-.33-3.3,3.43,3.43,0,0,0-2.89-1.11,6.28,6.28,0,0,0-2.74.62,9.6,9.6,0,0,0-2.47,1.73l-3.21,13.94h-3.76l3.71-16h-3.67Z"/><path d="M1200.9,178.28a8.05,8.05,0,0,1-2.4,1.17,9.65,9.65,0,0,1-2.66.35,7.15,7.15,0,0,1-2.95-.61,7.48,7.48,0,0,1-2.38-1.67,7.85,7.85,0,0,1-1.59-2.49,8.11,8.11,0,0,1-.58-3.09,12.57,12.57,0,0,1,.95-4.93,11.89,11.89,0,0,1,2.57-3.86,11.54,11.54,0,0,1,3.78-2.5,11.92,11.92,0,0,1,4.59-.89,8.05,8.05,0,0,1,2.61.42,6,6,0,0,1,2,1.08l.24-1h3.76l-4.41,19a16.13,16.13,0,0,1-1.48,4.11,9.11,9.11,0,0,1-2.26,2.77,8.64,8.64,0,0,1-3.11,1.58,14.77,14.77,0,0,1-4,.5,14,14,0,0,1-2.11-.17,13.31,13.31,0,0,1-2.14-.51,11.12,11.12,0,0,1-2-.86,7.41,7.41,0,0,1-1.63-1.22l2.39-2.71a5.37,5.37,0,0,0,1.08.88,8.11,8.11,0,0,0,1.39.69,9.45,9.45,0,0,0,1.6.46,8.84,8.84,0,0,0,1.71.17,9.56,9.56,0,0,0,2.43-.29,5,5,0,0,0,2-1,6.23,6.23,0,0,0,1.5-1.93A14.41,14.41,0,0,0,1200.9,178.28Zm-4.19-1.67a7,7,0,0,0,2.71-.52,8.74,8.74,0,0,0,2.32-1.41l2.37-10.23a3.81,3.81,0,0,0-1.5-1.06,6.74,6.74,0,0,0-2.67-.44,7.22,7.22,0,0,0-2.82.58,7.64,7.64,0,0,0-2.48,1.69,8.58,8.58,0,0,0-1.78,2.71,9.17,9.17,0,0,0-.69,3.64,6.29,6.29,0,0,0,.33,2.12,4.6,4.6,0,0,0,.93,1.58,3.91,3.91,0,0,0,1.44,1A4.84,4.84,0,0,0,1196.71,176.62Z"/><path d="M867.3,223.73a9.83,9.83,0,0,1-2.49,1.23,8.48,8.48,0,0,1-2.59.4,7.14,7.14,0,0,1-2.95-.61,7.46,7.46,0,0,1-2.38-1.67,7.84,7.84,0,0,1-1.59-2.49,8.11,8.11,0,0,1-.58-3.09,12.58,12.58,0,0,1,.95-4.93,11.88,11.88,0,0,1,2.57-3.86,11.53,11.53,0,0,1,3.78-2.5,11.91,11.91,0,0,1,4.59-.89,8,8,0,0,1,2.61.42,6,6,0,0,1,2,1.08l.24-1h3.73l-3.71,16h3l-.72,3.19H867Zm-4.21-1.56a6.13,6.13,0,0,0,1.4-.17,9.38,9.38,0,0,0,1.36-.43,8.53,8.53,0,0,0,1.22-.6,8,8,0,0,0,1-.71L870.49,210a3.74,3.74,0,0,0-1.5-1,6.88,6.88,0,0,0-2.67-.44,7.23,7.23,0,0,0-2.82.58,7.64,7.64,0,0,0-2.48,1.69,8.57,8.57,0,0,0-1.78,2.71,9.17,9.17,0,0,0-.69,3.64,6.29,6.29,0,0,0,.33,2.12,4.61,4.61,0,0,0,.93,1.58,3.91,3.91,0,0,0,1.44,1A4.85,4.85,0,0,0,863.09,222.17Z"/><path d="M883.74,205.82H891l-.46,2a10.37,10.37,0,0,1,2.88-1.71,9,9,0,0,1,3.31-.61,7.63,7.63,0,0,1,2.68.45,4.58,4.58,0,0,1,2,1.35,4.75,4.75,0,0,1,1,2.26,8,8,0,0,1-.17,3.15l-2.11,9.16h2.73l-.72,3.19h-6.49l2.76-11.88a3.86,3.86,0,0,0-.33-3.3,3.43,3.43,0,0,0-2.89-1.11,6.28,6.28,0,0,0-2.74.62,9.58,9.58,0,0,0-2.47,1.73L886.71,225h-3.76l3.71-16H883Z"/><path d="M925.76,196.18h6.93l-5.91,25.66H930l-.72,3.19h-6.91l.28-1.24A10.7,10.7,0,0,1,920.4,225a6.89,6.89,0,0,1-2.49.45,7.53,7.53,0,0,1-3.08-.63,7.74,7.74,0,0,1-2.49-1.74,8.18,8.18,0,0,1-1.68-2.62,8.63,8.63,0,0,1-.61-3.27,12.12,12.12,0,0,1,.91-4.73,11.82,11.82,0,0,1,2.47-3.76,11.4,11.4,0,0,1,3.65-2.49,11.14,11.14,0,0,1,4.46-.9,8.69,8.69,0,0,1,2.76.43,7.31,7.31,0,0,1,2.22,1.17l1.72-7.47H925Zm-7,26a6.29,6.29,0,0,0,2.42-.52,7.12,7.12,0,0,0,2.27-1.52l2.3-10a4.5,4.5,0,0,0-1.78-1.23,7.24,7.24,0,0,0-2.67-.44,6.81,6.81,0,0,0-2.73.58,7.35,7.35,0,0,0-2.38,1.66,8.29,8.29,0,0,0-1.68,2.61,8.85,8.85,0,0,0-.64,3.43,6.48,6.48,0,0,0,.36,2.23,4.89,4.89,0,0,0,1,1.69,4.49,4.49,0,0,0,1.55,1.08A5,5,0,0,0,918.77,222.17Z"/><path d="M964.63,213.14a3.83,3.83,0,0,0-.34-3.3,3.43,3.43,0,0,0-2.88-1.11,6.88,6.88,0,0,0-2.58.54,11.9,11.9,0,0,0-2.56,1.43L953,225h-3.74l5.89-25.66h-3.71l.76-3.19h7.45l-2.69,11.6a12.19,12.19,0,0,1,2.89-1.69,8.29,8.29,0,0,1,3.17-.63,7.62,7.62,0,0,1,2.68.45,4.51,4.51,0,0,1,1.95,1.35,4.86,4.86,0,0,1,1,2.26,7.88,7.88,0,0,1-.16,3.15l-2.11,9.16h2.73l-.72,3.19h-6.49Z"/><path d="M989.08,223.73a9.83,9.83,0,0,1-2.49,1.23,8.48,8.48,0,0,1-2.59.4,7.14,7.14,0,0,1-2.95-.61,7.46,7.46,0,0,1-2.38-1.67,7.84,7.84,0,0,1-1.59-2.49,8.11,8.11,0,0,1-.58-3.09,12.58,12.58,0,0,1,.95-4.93,11.88,11.88,0,0,1,2.57-3.86,11.53,11.53,0,0,1,3.78-2.5,11.91,11.91,0,0,1,4.59-.89,8,8,0,0,1,2.61.42,6,6,0,0,1,2,1.08l.24-1H997l-3.71,16h3l-.72,3.19h-6.73Zm-4.21-1.56a6.13,6.13,0,0,0,1.4-.17,9.38,9.38,0,0,0,1.36-.43,8.53,8.53,0,0,0,1.22-.6,8,8,0,0,0,1-.71L992.26,210a3.74,3.74,0,0,0-1.5-1,6.88,6.88,0,0,0-2.67-.44,7.23,7.23,0,0,0-2.82.58,7.64,7.64,0,0,0-2.48,1.69,8.57,8.57,0,0,0-1.78,2.71,9.17,9.17,0,0,0-.69,3.64,6.29,6.29,0,0,0,.33,2.12,4.61,4.61,0,0,0,.93,1.58,3.91,3.91,0,0,0,1.44,1A4.85,4.85,0,0,0,984.87,222.17Z"/><path d="M1004.53,205.82h7l-.76,3.19h-1.46l1.15,11.84L1018,209h-1.56l.76-3.19h7l-.76,3.19H1022l-11,16.31h-3.26L1005.59,209h-1.8Z"/><path d="M1030.18,205.82h7.17l-3.71,16h3.08L1036,225h-6.84l3.71-16h-3.45Zm3.54-6.77a2.33,2.33,0,0,1,.19-.95,2.4,2.4,0,0,1,.53-.77,2.62,2.62,0,0,1,.78-.52,2.38,2.38,0,0,1,1-.19,2.33,2.33,0,0,1,.95.19,2.44,2.44,0,0,1,1.29,1.29,2.33,2.33,0,0,1,.19.95,2.4,2.4,0,0,1-.19,1,2.7,2.7,0,0,1-.52.8,2.43,2.43,0,0,1-.77.55,2.23,2.23,0,0,1-.95.2,2.28,2.28,0,0,1-1-.2,2.56,2.56,0,0,1-.78-.55,2.6,2.6,0,0,1-.53-.8A2.4,2.4,0,0,1,1033.72,199.06Z"/><path d="M1046.44,205.82h7.25l-.46,2a10.37,10.37,0,0,1,2.88-1.71,9,9,0,0,1,3.31-.61,7.63,7.63,0,0,1,2.68.45,4.58,4.58,0,0,1,2,1.35,4.75,4.75,0,0,1,1,2.26,8,8,0,0,1-.17,3.15l-2.11,9.16h2.73l-.72,3.19h-6.49l2.76-11.88a3.86,3.86,0,0,0-.33-3.3,3.43,3.43,0,0,0-2.89-1.11,6.28,6.28,0,0,0-2.74.62,9.58,9.58,0,0,0-2.47,1.73L1049.4,225h-3.76l3.71-16h-3.67Z"/><path d="M1085.86,223.84a8.05,8.05,0,0,1-2.4,1.17,9.67,9.67,0,0,1-2.66.35,7.14,7.14,0,0,1-2.95-.61,7.46,7.46,0,0,1-2.38-1.67,7.84,7.84,0,0,1-1.59-2.49,8.11,8.11,0,0,1-.58-3.09,12.58,12.58,0,0,1,.95-4.93,11.88,11.88,0,0,1,2.57-3.86,11.53,11.53,0,0,1,3.78-2.5,11.91,11.91,0,0,1,4.59-.89,8,8,0,0,1,2.61.42,6,6,0,0,1,2,1.08l.24-1h3.76l-4.41,19a16.14,16.14,0,0,1-1.48,4.11,9.11,9.11,0,0,1-2.26,2.77,8.63,8.63,0,0,1-3.11,1.58,14.75,14.75,0,0,1-4,.5,14.13,14.13,0,0,1-2.11-.17,13.31,13.31,0,0,1-2.14-.51,11.19,11.19,0,0,1-2-.86,7.42,7.42,0,0,1-1.63-1.22l2.39-2.71a5.33,5.33,0,0,0,1.08.88,8.07,8.07,0,0,0,1.39.7,9.4,9.4,0,0,0,1.6.46,8.8,8.8,0,0,0,1.71.17,9.56,9.56,0,0,0,2.43-.29,5,5,0,0,0,2-1,6.22,6.22,0,0,0,1.5-1.93A14.4,14.4,0,0,0,1085.86,223.84Zm-4.19-1.67a7,7,0,0,0,2.71-.52,8.74,8.74,0,0,0,2.32-1.41l2.37-10.23a3.81,3.81,0,0,0-1.5-1.06,6.74,6.74,0,0,0-2.67-.45,7.23,7.23,0,0,0-2.82.58,7.64,7.64,0,0,0-2.48,1.69,8.57,8.57,0,0,0-1.78,2.71,9.17,9.17,0,0,0-.69,3.64,6.29,6.29,0,0,0,.33,2.12,4.61,4.61,0,0,0,.93,1.58,3.91,3.91,0,0,0,1.44,1A4.85,4.85,0,0,0,1081.67,222.17Z"/><path d="M1112.42,205.82h3.93l.78-3.39a10.68,10.68,0,0,1,1.15-3,7.3,7.3,0,0,1,1.75-2.06,6.68,6.68,0,0,1,2.27-1.17,9.63,9.63,0,0,1,2.73-.37,11.2,11.2,0,0,1,1.64.11,12,12,0,0,1,1.36.28,9.88,9.88,0,0,1,1.09.36,7.23,7.23,0,0,1,.82.38l-1.91,2.85a5,5,0,0,0-1.33-.56,6.64,6.64,0,0,0-1.83-.24,3.93,3.93,0,0,0-2.52.82,4.9,4.9,0,0,0-1.5,2.83l-.74,3.19h5.23l-.76,3.19h-5.19l-5.67,24.75H1110l5.65-24.75h-3.95Z"/><path d="M1143,205.82h6.23l-3.71,16h2.87l-.72,3.19h-6.45l.45-1.95a7,7,0,0,1-1.28,1,7.61,7.61,0,0,1-1.4.71,8.41,8.41,0,0,1-1.41.4,7.1,7.1,0,0,1-1.29.13,7.74,7.74,0,0,1-2.38-.36,5,5,0,0,1-1.88-1.07,6.45,6.45,0,0,1-.86-1.08,5,5,0,0,1-.62-1.49,7.69,7.69,0,0,1-.2-2,12.94,12.94,0,0,1,.37-2.67l1.76-7.66h-2.59l.76-3.19h6.3l-2.28,9.75q-.82,3.45-.07,5.06t3.18,1.61a4.7,4.7,0,0,0,1.9-.36,5.15,5.15,0,0,0,1.5-1,7.52,7.52,0,0,0,1.14-1.37l2.45-10.49h-2.52Z"/><path d="M1157.81,205.82h7.25l-.46,2a10.37,10.37,0,0,1,2.88-1.71,9,9,0,0,1,3.31-.61,7.63,7.63,0,0,1,2.68.45,4.58,4.58,0,0,1,2,1.35,4.75,4.75,0,0,1,1,2.26,8,8,0,0,1-.17,3.15l-2.11,9.16h2.73l-.72,3.19h-6.49l2.76-11.88a3.86,3.86,0,0,0-.33-3.3,3.43,3.43,0,0,0-2.89-1.11,6.28,6.28,0,0,0-2.74.62,9.58,9.58,0,0,0-2.47,1.73L1160.78,225H1157l3.71-16H1157Z"/><path d="M917.34,288h9.12l-.76,3.21h-2.61l-5,21.71h2.58l-.72,3.19h-9.12l.72-3.19h2.67l5-21.71H916.6Z"/><path d="M932.31,296.93h3.21l1.13-4.6,3.91-1.59-1.46,6.19h4l-.76,3.19h-4l-2.45,10.36q-.09.37-.18.75a3.76,3.76,0,0,0-.08.81,1.38,1.38,0,0,0,.45,1.18,2.39,2.39,0,0,0,1.44.34,6.88,6.88,0,0,0,2.54-.61l.32,2.65a13.33,13.33,0,0,1-1.89.73,7.09,7.09,0,0,1-2,.27,7.44,7.44,0,0,1-2.13-.29,3.56,3.56,0,0,1-1.59-.95,3.33,3.33,0,0,1-.83-1.72,6.54,6.54,0,0,1,.15-2.62l2.67-10.9h-3.17Z"/><path d="M954.46,287.17l3.43,1.48-6,9.34-2.32-1.21Z"/><path d="M972.39,301a2.68,2.68,0,0,0-.74-.94,3.28,3.28,0,0,0-1.11-.57,4.72,4.72,0,0,0-1.38-.19,5.52,5.52,0,0,0-1.41.18,3.62,3.62,0,0,0-1.17.53,2.65,2.65,0,0,0-.79.85,2.22,2.22,0,0,0-.29,1.13,1.71,1.71,0,0,0,.47,1.23,4.26,4.26,0,0,0,1.49.9l3.58,1.28a4.94,4.94,0,0,1,2.48,1.84,5.25,5.25,0,0,1,.85,3,6.35,6.35,0,0,1-.58,2.8,5.7,5.7,0,0,1-1.62,2,7.09,7.09,0,0,1-2.47,1.22,12.17,12.17,0,0,1-5.13.24,8,8,0,0,1-1.75-.51,5.45,5.45,0,0,1-1.41-.85,3.7,3.7,0,0,1-.94-1.18h-2l.76-3.19h3.91a2.18,2.18,0,0,0,.18,1.28,2.58,2.58,0,0,0,.8.94,3.6,3.6,0,0,0,1.23.57,6,6,0,0,0,1.51.18,5.29,5.29,0,0,0,1.49-.2,3.77,3.77,0,0,0,1.21-.59,2.9,2.9,0,0,0,.83-1,2.75,2.75,0,0,0,.31-1.32,1.94,1.94,0,0,0-.5-1.29,3.56,3.56,0,0,0-1.56-1l-3.41-1.24a5.48,5.48,0,0,1-2.54-1.9,4.73,4.73,0,0,1-.89-2.81,6.3,6.3,0,0,1,.48-2.5,5.26,5.26,0,0,1,1.43-1.95,6.57,6.57,0,0,1,2.37-1.26,11.16,11.16,0,0,1,3.32-.45,9,9,0,0,1,2,.21,7.08,7.08,0,0,1,1.65.58,5.36,5.36,0,0,1,1.24.86,4.37,4.37,0,0,1,.83,1.07h2.08l-.76,3.19h-3.84A3.09,3.09,0,0,0,972.39,301Z"/><path d="M1006.89,314.84a9.83,9.83,0,0,1-2.49,1.23,8.48,8.48,0,0,1-2.59.4,7.14,7.14,0,0,1-2.95-.61,7.46,7.46,0,0,1-2.38-1.67,7.84,7.84,0,0,1-1.59-2.49,8.11,8.11,0,0,1-.58-3.09,12.58,12.58,0,0,1,.95-4.93,11.88,11.88,0,0,1,2.57-3.86,11.53,11.53,0,0,1,3.78-2.5,11.91,11.91,0,0,1,4.59-.89,8,8,0,0,1,2.61.42,6,6,0,0,1,2,1.08l.24-1h3.73l-3.71,16h3l-.72,3.19h-6.73Zm-4.21-1.56a6.13,6.13,0,0,0,1.4-.17,9.38,9.38,0,0,0,1.36-.43,8.53,8.53,0,0,0,1.22-.6,8,8,0,0,0,1-.71l2.39-10.27a3.74,3.74,0,0,0-1.5-1,6.88,6.88,0,0,0-2.67-.44,7.23,7.23,0,0,0-2.82.58,7.64,7.64,0,0,0-2.48,1.69,8.57,8.57,0,0,0-1.78,2.71,9.17,9.17,0,0,0-.69,3.64,6.29,6.29,0,0,0,.33,2.12,4.61,4.61,0,0,0,.93,1.58,3.91,3.91,0,0,0,1.44,1A4.85,4.85,0,0,0,1002.69,313.28Z"/><path d="M1048.65,313H1051l-.69-6.34h-10.64l-3.54,6.34h2.52l-.7,3.19h-9.12l.72-3.19H1032L1046.08,288h6L1055,313h2.78l-.72,3.19h-9.12Zm-7.19-9.53H1050l-1.39-12.75Z"/><path d="M1079.44,302.24h-3.76l.54-2.26a5.05,5.05,0,0,0-3.06.92,7.15,7.15,0,0,0-2.08,2.42l-2.22,9.64H1072l-.72,3.19h-7l3.71-16h-3.67l.76-3.19h7.25l-.61,2.63a11,11,0,0,1,1.11-1.1,7.84,7.84,0,0,1,1.25-.88,6.72,6.72,0,0,1,1.37-.58,5,5,0,0,1,1.44-.21l1.15,0,1,.06q.55,0,1.51.18Z"/><path d="M1087.68,296.93h3.21l1.13-4.6,3.91-1.59-1.46,6.19h4l-.76,3.19h-4l-2.45,10.36q-.09.37-.18.75a3.76,3.76,0,0,0-.08.81,1.38,1.38,0,0,0,.45,1.18,2.39,2.39,0,0,0,1.44.34,6.88,6.88,0,0,0,2.54-.61l.32,2.65a13.33,13.33,0,0,1-1.89.73,7.09,7.09,0,0,1-2,.27,7.44,7.44,0,0,1-2.13-.29,3.56,3.56,0,0,1-1.59-.95,3.33,3.33,0,0,1-.83-1.72,6.54,6.54,0,0,1,.15-2.62l2.67-10.9h-3.17Z"/><path d="M1114.39,313.93a2.35,2.35,0,0,1,.19-.95,2.42,2.42,0,0,1,.53-.77,2.61,2.61,0,0,1,.78-.52,2.37,2.37,0,0,1,1-.19,2.33,2.33,0,0,1,.95.19,2.43,2.43,0,0,1,1.29,1.29,2.33,2.33,0,0,1,.19.95,2.4,2.4,0,0,1-.19,1,2.68,2.68,0,0,1-.52.8,2.45,2.45,0,0,1-.77.55,2.25,2.25,0,0,1-.95.2,2.28,2.28,0,0,1-1-.2,2.57,2.57,0,0,1-.78-.55,2.61,2.61,0,0,1-.53-.8A2.41,2.41,0,0,1,1114.39,313.93Z"/><path d="M752.16,389.08l11.64-4.22v3.95l-6.91,2.07,6.91,2.22v3.85l-11.64-4.42Z"/><path d="M786.2,375.48h3.95l-8.91,24h-4Z"/><path d="M807.92,376.1h8.88v4.24h-1.9v19.13h-5.12l-9.73-15.11v10.88h2v4.22h-8.87v-4.22h1.93V380.34h-1.9V376.1h7.06l9.67,15.31V380.34h-2Z"/><path d="M832.43,399.89a10.57,10.57,0,0,1-3-.43,11,11,0,0,1-2.71-1.22,11.26,11.26,0,0,1-2.28-1.89,11.69,11.69,0,0,1-1.75-2.45,13,13,0,0,1-1.13-2.89,13.2,13.2,0,0,1,0-6.45,13,13,0,0,1,1.13-2.9,11.73,11.73,0,0,1,1.75-2.45,11.32,11.32,0,0,1,2.28-1.89,11,11,0,0,1,2.71-1.22,10.93,10.93,0,0,1,6.08,0,11,11,0,0,1,2.71,1.22,11.35,11.35,0,0,1,2.28,1.89,12,12,0,0,1,1.76,2.45,12.93,12.93,0,0,1,0,12.24,12,12,0,0,1-1.76,2.45,11.28,11.28,0,0,1-2.28,1.89,11,11,0,0,1-2.71,1.22A10.65,10.65,0,0,1,832.43,399.89Zm0-4.84a5.28,5.28,0,0,0,2.46-.58,6,6,0,0,0,1.92-1.57,7.33,7.33,0,0,0,1.24-2.31,9.14,9.14,0,0,0,0-5.62,7.39,7.39,0,0,0-1.26-2.32,6.08,6.08,0,0,0-1.92-1.57,5.42,5.42,0,0,0-4.87,0,6,6,0,0,0-1.91,1.57,7.6,7.6,0,0,0-1.26,2.32,8.65,8.65,0,0,0-.45,2.82,8.54,8.54,0,0,0,.45,2.8,7.61,7.61,0,0,0,1.26,2.31,6,6,0,0,0,1.91,1.57A5.2,5.2,0,0,0,832.43,395Z"/><path d="M853.36,395.25h2.42V380.19h-2.84v3h-5V376.1h21.26v7.11h-5.06v-3H860.9v15.06h2.47v4.22h-10Z"/><path d="M885.17,382.68a2.59,2.59,0,0,0-.38-1,3,3,0,0,0-.77-.82,3.93,3.93,0,0,0-2.3-.75,4.64,4.64,0,0,0-1.09.12,2.73,2.73,0,0,0-.89.38,1.89,1.89,0,0,0-.6.65,1.93,1.93,0,0,0-.22,1,1.82,1.82,0,0,0,.3,1.1,2.38,2.38,0,0,0,.77.67,4.58,4.58,0,0,0,1,.42q.57.15,1.11.34l4.24,1.42A6.82,6.82,0,0,1,888,387a5.68,5.68,0,0,1,1.33,1.31,6.24,6.24,0,0,1,.89,1.77,7.31,7.31,0,0,1,.32,2.25,7.53,7.53,0,0,1-.62,3.1,7,7,0,0,1-1.75,2.41,8,8,0,0,1-2.7,1.56,11.06,11.06,0,0,1-6,.25,8.39,8.39,0,0,1-2.18-.87,7.39,7.39,0,0,1-1.73-1.36,6,6,0,0,1-1.16-1.8h-1.59V391h5.58v1a3.56,3.56,0,0,0,.22,1.28,2.78,2.78,0,0,0,.67,1,3.06,3.06,0,0,0,1.13.67,4.76,4.76,0,0,0,1.59.24,3.1,3.1,0,0,0,2.11-.64,2.25,2.25,0,0,0,.72-1.78,1.76,1.76,0,0,0-.25-1,2.31,2.31,0,0,0-.66-.66,4.34,4.34,0,0,0-.89-.46l-1-.34-3.53-1.14a9,9,0,0,1-1.93-.86,6.66,6.66,0,0,1-1.65-1.39,6.46,6.46,0,0,1-1.14-1.95,7.15,7.15,0,0,1-.42-2.55,6.85,6.85,0,0,1,.62-3,6.17,6.17,0,0,1,1.73-2.2,7.74,7.74,0,0,1,2.64-1.36,11.52,11.52,0,0,1,3.35-.46,10.09,10.09,0,0,1,2.65.33,9.26,9.26,0,0,1,2.18.89,7.06,7.06,0,0,1,1.63,1.27,5.65,5.65,0,0,1,1,1.49h1.54V384h-5.58Z"/><path d="M895.65,376.1h18.59v8h-5v-3.32h-6v4.61h4.64v4.47h-4.64v5.41h6V391.1h5v8.37H895.65v-4.22h2.45V380.76h-2.45Z"/><path d="M938.84,392.52l-11.66,4.42v-3.85l6.91-2.22-6.91-2.07v-3.95l11.66,4.22Z"/><path d="M752.16,54.08l11.64-4.22V53.8l-6.91,2.07,6.91,2.22v3.85l-11.64-4.42Z"/><path d="M793,41.1h8.88v4.24h-1.9V64.47h-5.12l-9.73-15.11V60.25h2v4.22h-8.87V60.25h1.93V45.34h-1.9V41.1h7.06l9.67,15.31V45.34h-2Z"/><path d="M817.46,64.89a10.59,10.59,0,0,1-3-.43,11,11,0,0,1-2.71-1.22,11.26,11.26,0,0,1-2.28-1.89,11.71,11.71,0,0,1-1.75-2.45A13,13,0,0,1,806.56,56a13.2,13.2,0,0,1,0-6.45,13,13,0,0,1,1.13-2.9,11.71,11.71,0,0,1,1.75-2.45,11.29,11.29,0,0,1,2.28-1.89,11,11,0,0,1,2.71-1.22,10.93,10.93,0,0,1,6.08,0,11,11,0,0,1,2.71,1.22,11.32,11.32,0,0,1,2.28,1.89,12,12,0,0,1,1.76,2.45,12.93,12.93,0,0,1,0,12.24,12,12,0,0,1-1.76,2.45,11.28,11.28,0,0,1-2.28,1.89,10.94,10.94,0,0,1-2.71,1.22A10.67,10.67,0,0,1,817.46,64.89Zm0-4.84a5.27,5.27,0,0,0,2.46-.58,6,6,0,0,0,1.92-1.57,7.33,7.33,0,0,0,1.24-2.31,9.14,9.14,0,0,0,0-5.62,7.39,7.39,0,0,0-1.26-2.32,6.08,6.08,0,0,0-1.92-1.57,5.42,5.42,0,0,0-4.87,0,6,6,0,0,0-1.91,1.57A7.6,7.6,0,0,0,811.86,50a8.65,8.65,0,0,0-.45,2.82,8.53,8.53,0,0,0,.45,2.8,7.6,7.6,0,0,0,1.26,2.31A6,6,0,0,0,815,59.47,5.19,5.19,0,0,0,817.46,60Z"/><path d="M838.4,60.25h2.42V45.19H838v3h-5V41.1h21.26v7.11h-5.06v-3h-3.22V60.25h2.47v4.22h-10Z"/><path d="M870.2,47.68a2.59,2.59,0,0,0-.38-1,3,3,0,0,0-.77-.82,3.91,3.91,0,0,0-2.3-.75,4.64,4.64,0,0,0-1.09.12,2.72,2.72,0,0,0-.89.38,1.89,1.89,0,0,0-.6.66,1.93,1.93,0,0,0-.22,1,1.82,1.82,0,0,0,.3,1.1A2.38,2.38,0,0,0,865,49a4.58,4.58,0,0,0,1,.42q.57.15,1.11.34l4.24,1.42a6.81,6.81,0,0,1,1.65.85,5.67,5.67,0,0,1,1.33,1.31,6.24,6.24,0,0,1,.89,1.77,7.31,7.31,0,0,1,.32,2.25,7.54,7.54,0,0,1-.62,3.1,7,7,0,0,1-1.75,2.41,8,8,0,0,1-2.7,1.56,11.05,11.05,0,0,1-6,.25,8.44,8.44,0,0,1-2.18-.87,7.42,7.42,0,0,1-1.73-1.36,6,6,0,0,1-1.16-1.8h-1.59V56h5.58v1a3.55,3.55,0,0,0,.22,1.28,2.78,2.78,0,0,0,.67,1,3.05,3.05,0,0,0,1.13.67,4.77,4.77,0,0,0,1.59.24,3.1,3.1,0,0,0,2.11-.64,2.25,2.25,0,0,0,.72-1.78,1.77,1.77,0,0,0-.25-1,2.31,2.31,0,0,0-.66-.66,4.32,4.32,0,0,0-.89-.46l-1-.34-3.53-1.14a8.88,8.88,0,0,1-1.93-.86A6.64,6.64,0,0,1,860,51.89a6.46,6.46,0,0,1-1.14-2,7.15,7.15,0,0,1-.42-2.55,6.86,6.86,0,0,1,.62-3,6.18,6.18,0,0,1,1.73-2.2,7.73,7.73,0,0,1,2.64-1.36,11.5,11.5,0,0,1,3.35-.46,10.09,10.09,0,0,1,2.65.33,9.2,9.2,0,0,1,2.18.89,7,7,0,0,1,1.63,1.27,5.64,5.64,0,0,1,1,1.49h1.54V49H870.2Z"/><path d="M880.68,41.1h18.59v8h-5V45.76h-6v4.61h4.64v4.47h-4.64v5.41h6V56.1h5v8.37H880.68V60.25h2.45V45.76h-2.45Z"/><path d="M923.87,57.52l-11.66,4.42V58.09l6.91-2.22-6.91-2.07V49.86l11.66,4.22Z"/><circle class="cls-4" cx="331" cy="229.38" r="170"/><path class="cls-5" d="M439,226.22v93.64a21.26,21.26,0,0,1-21.26,21.26H244.26A21.26,21.26,0,0,1,223,319.85V226.22a20.75,20.75,0,0,1,.29-3.5s0,0,0,0,0-.21,0-.32V200.17a20.78,20.78,0,0,1,20.78-20.78h68.26l23,23,2.87,2.87,79.56-.29A21.26,21.26,0,0,1,439,226.22Z"/><circle cx="387.87" cy="241.15" r="17.81"/><circle class="cls-6" cx="387.87" cy="241.15" r="8.04"/><circle cx="274.13" cy="241.15" r="17.81"/><circle class="cls-6" cx="274.13" cy="241.15" r="8.04"/><path class="cls-6" d="M424.64,143.2v1.72a25.56,25.56,0,0,1-25.56,25.56H348.91l-8.11,7.13L335,170.49H272.12a25.56,25.56,0,0,1-25.56-25.56V143.2a25.56,25.56,0,0,1,25.56-25.56h127A25.56,25.56,0,0,1,424.64,143.2Z"/><path class="cls-7" d="M263.15,153V135.26h2.5l5.68,9A50.2,50.2,0,0,1,274.5,150l.05,0c-.21-2.37-.26-4.52-.26-7.28v-7.41h2.16V153h-2.31l-5.63-9a56.34,56.34,0,0,1-3.31-5.92l-.08,0c.13,2.23.18,4.36.18,7.31V153Z"/><path class="cls-7" d="M289.52,153l-.18-1.6h-.08a4.74,4.74,0,0,1-3.89,1.89,3.63,3.63,0,0,1-3.89-3.65c0-3.08,2.73-4.76,7.65-4.73v-.26a2.62,2.62,0,0,0-2.89-2.94,6.34,6.34,0,0,0-3.31.95l-.53-1.52a7.9,7.9,0,0,1,4.18-1.13c3.89,0,4.84,2.66,4.84,5.21v4.76a17.92,17.92,0,0,0,.21,3Zm-.34-6.49c-2.52-.05-5.39.39-5.39,2.87a2,2,0,0,0,2.18,2.21,3.17,3.17,0,0,0,3.08-2.13,2.42,2.42,0,0,0,.13-.74Z"/><path class="cls-7" d="M297.25,143.7c0-1.31,0-2.39-.11-3.44h2l.11,2.05h.08a4.39,4.39,0,0,1,4-2.34,3.76,3.76,0,0,1,3.6,2.55H307a5.24,5.24,0,0,1,1.42-1.66,4.34,4.34,0,0,1,2.81-.89c1.68,0,4.18,1.1,4.18,5.52V153h-2.26v-7.2c0-2.45-.89-3.92-2.76-3.92a3,3,0,0,0-2.73,2.1,3.8,3.8,0,0,0-.18,1.16V153h-2.26v-7.62c0-2-.89-3.5-2.66-3.5a3.45,3.45,0,0,0-3,3.44V153h-2.26Z"/><path class="cls-7" d="M328.32,153l-.18-1.6h-.08a4.74,4.74,0,0,1-3.89,1.89,3.63,3.63,0,0,1-3.89-3.65c0-3.08,2.73-4.76,7.65-4.73v-.26a2.62,2.62,0,0,0-2.89-2.94,6.34,6.34,0,0,0-3.31.95l-.53-1.52a7.9,7.9,0,0,1,4.18-1.13c3.89,0,4.84,2.66,4.84,5.21v4.76a17.92,17.92,0,0,0,.21,3Zm-.34-6.49c-2.52-.05-5.39.39-5.39,2.87a2,2,0,0,0,2.18,2.21,3.17,3.17,0,0,0,3.08-2.13,2.42,2.42,0,0,0,.13-.74Z"/><path class="cls-7" d="M335.74,150.61a6.07,6.07,0,0,0,3,.92c1.68,0,2.47-.84,2.47-1.89s-.66-1.71-2.37-2.34c-2.29-.81-3.37-2.08-3.37-3.6,0-2.05,1.66-3.73,4.39-3.73a6.35,6.35,0,0,1,3.13.79l-.58,1.68a5,5,0,0,0-2.6-.74c-1.37,0-2.13.79-2.13,1.74s.76,1.52,2.42,2.16c2.21.84,3.34,1.95,3.34,3.84,0,2.23-1.73,3.81-4.76,3.81a7.26,7.26,0,0,1-3.58-.87Z"/><path class="cls-7" d="M351.36,136.6v3.65h3.31V142h-3.31v6.86c0,1.58.45,2.47,1.74,2.47a5.16,5.16,0,0,0,1.34-.16l.1,1.73a5.66,5.66,0,0,1-2.05.32,3.21,3.21,0,0,1-2.5-1,4.71,4.71,0,0,1-.89-3.31V142h-2v-1.76h2v-3Z"/><path class="cls-7" d="M360.51,147c.05,3.13,2.05,4.42,4.36,4.42a8.37,8.37,0,0,0,3.52-.66l.39,1.66a10.31,10.31,0,0,1-4.23.79c-3.92,0-6.26-2.58-6.26-6.41s2.26-6.86,6-6.86c4.15,0,5.26,3.65,5.26,6a8.71,8.71,0,0,1-.08,1.08Zm6.78-1.66c0-1.47-.6-3.76-3.21-3.76-2.34,0-3.37,2.16-3.55,3.76Z"/><path class="cls-7" d="M374,151.64A1.54,1.54,0,0,1,375.6,150a1.63,1.63,0,0,1,0,3.26A1.54,1.54,0,0,1,374,151.64Zm.66-3.76-.37-12.62h2.52l-.37,12.62Z"/><path class="cls-8" d="M300,296.88h71.81a0,0,0,0,1,0,0v1.49a34.7,34.7,0,0,1-34.7,34.7h-2.41a34.7,34.7,0,0,1-34.7-34.7v-1.49A0,0,0,0,1,300,296.88Z"/><g id="Layer_3" data-name="Layer 3"><path class="cls-9" d="M399.44,146.43,399,146l-.44.44V126.09l.28.28a.22.22,0,0,0,.31,0l.28-.28Z"/><path class="cls-10" d="M399.44,134.9v-8.65a1.27,1.27,0,0,1,.2-.71,1.2,1.2,0,0,1,1.95-.07l.08.1a1.21,1.21,0,0,1,.23.51l.65,7.19c.25,3.24.84,4,1.56,7.44.35,1.7-2.79,7.05-2.79,7.05s-1.3.66-1.26-2.47C400.07,144.16,399.44,134.9,399.44,134.9Z"/><path class="cls-10" d="M398.56,134.9v-8.65a1.27,1.27,0,0,0-.2-.71,1.2,1.2,0,0,0-1.95-.07l-.08.1a1.21,1.21,0,0,0-.23.51l-.65,7.19c-.25,3.24-.84,4-1.56,7.44-.35,1.7,2.79,7.05,2.79,7.05s1.3.66,1.26-2.47C397.93,144.16,398.56,134.9,398.56,134.9Z"/><path class="cls-10" d="M404.15,141.27s2,3.23,3.44,4-3.23,7.19-3.23,7.19-2.53-4.25-3.33-4.31"/><path class="cls-10" d="M401.17,148s-1.76-.13-1.72-2.85,0-9,0-9v-7.54a1,1,0,0,1,.26-.65h0a1.12,1.12,0,0,1,.31-.24,1.25,1.25,0,0,1,1.76.78l.14,2.53"/><path class="cls-10" d="M401.9,131.12a1.24,1.24,0,1,0-2.46,0v14.53c0,2.39,1.73,2.5,1.73,2.5h0a3,3,0,0,0,2.93-2.32l.17-.72a16.17,16.17,0,0,0-1.26-8.7,19.87,19.87,0,0,1-1.11-5.4"/><path class="cls-10" d="M396.1,131.12a1.24,1.24,0,1,1,2.46,0v14.53c0,2.39-1.73,2.5-1.73,2.5h0a3,3,0,0,1-2.93-2.32l-.17-.72a16.17,16.17,0,0,1,1.26-8.7,19.87,19.87,0,0,0,1.11-5.4"/><path class="cls-10" d="M393.85,141.27s-2,3.23-3.44,4,3.23,7.19,3.23,7.19,2.53-4.25,3.33-4.31"/><polygon class="cls-11" points="408.28 144.87 402.6 150.95 404.39 152.99 413 152.99 413 148.75 408.28 144.87"/><path class="cls-10" d="M396.83,148s1.76-.13,1.72-2.85,0-9,0-9v-7.54a1,1,0,0,0-.26-.65h0a1.12,1.12,0,0,0-.31-.24,1.25,1.25,0,0,0-1.76.78L396.1,131"/><path class="cls-12" d="M401.29,128.12c-.71-1-2.29-.62-2.29,1.25"/><path class="cls-12" d="M401.47,126.09a1.29,1.29,0,0,0-2.44.64"/><path class="cls-12" d="M396.51,126.09c.42-1.08,2.24-.9,2.52.67"/><path class="cls-12" d="M399,129.38c0-1.89-1.63-2.3-2.32-1.21"/><polygon class="cls-11" points="389.84 144.87 395.58 150.95 393.85 152.99 385 152.99 385 148.75 389.84 144.87"/><path class="cls-12" d="M399,133.53c0-2.05-1.91-2.35-2.47-.9"/><path class="cls-12" d="M401.53,132.79c-.48-1.63-2.53-1.38-2.53.74"/><path class="cls-12" d="M396.42,148.23s2.58.55,2.58-2.5"/><path class="cls-12" d="M401.6,148.23s-2.58.55-2.58-2.5"/></g></svg>