<svg id="Layer_1" data-name="Layer 1" xmlns="http://www.w3.org/2000/svg" viewBox="0 0 1280 450"><defs><style>.cls-1{fill:none;stroke:#000;stroke-width:0.5px;}.cls-1,.cls-14{stroke-miterlimit:10;}.cls-2{fill:#eecf95;}.cls-3{fill:#f0ecdc;}.cls-4{font-size:37.96px;font-family:Arvo-Italic, Arvo;font-style:italic;letter-spacing:0.08em;}.cls-5{font-size:31.57px;font-family:Arvo-Bold, Arvo;font-weight:700;letter-spacing:0.08em;}.cls-6{fill:#96524d;}.cls-7{fill:#ebcd70;}.cls-8{fill:#fff;}.cls-9{fill:#333;}.cls-10{fill:#760a30;}.cls-11{fill:#e39e49;}.cls-12,.cls-14{fill:#fcc21b;}.cls-13{fill:#4285f4;}.cls-14{stroke:#e39e49;stroke-linecap:round;stroke-width:0.87px;}</style></defs><title>Artboard 1</title><line class="cls-1" x1="752" y1="79" x2="752" y2="371"/><polygon class="cls-2" points="1280 -0.25 1280 449.75 557.44 449.75 739.17 -0.25 1280 -0.25"/><polygon class="cls-3" points="739.17 -0.25 557.44 449.75 0 449.75 0 -0.25 739.17 -0.25"/><text class="cls-4" transform="translate(811.15 179.47)">Learning by doing <tspan x="41.62" y="45.56">and having fun</tspan><tspan x="98.31" y="136.67">It’s a Art .</tspan></text><text class="cls-5" transform="translate(751.68 399.47)">&lt; /NOTSE &gt;</text><text class="cls-5" transform="translate(751.68 64.47)">&lt; NOTSE &gt;</text><circle class="cls-6" cx="331" cy="229.38" r="170"/><path class="cls-7" d="M439,226.22v93.64a21.26,21.26,0,0,1-21.26,21.26H244.26A21.26,21.26,0,0,1,223,319.85V226.22a20.75,20.75,0,0,1,.29-3.5s0,0,0,0,0-.21,0-.32V200.17a20.78,20.78,0,0,1,20.78-20.78h68.26l23,23,2.87,2.87,79.56-.29A21.26,21.26,0,0,1,439,226.22Z"/><circle cx="387.87" cy="241.15" r="17.81"/><circle class="cls-8" cx="387.87" cy="241.15" r="8.04"/><circle cx="274.13" cy="241.15" r="17.81"/><circle class="cls-8" cx="274.13" cy="241.15" r="8.04"/><path class="cls-8" d="M424.64,143.2v1.72a25.56,25.56,0,0,1-25.56,25.56H348.91l-8.11,7.13L335,170.49H272.12a25.56,25.56,0,0,1-25.56-25.56V143.2a25.56,25.56,0,0,1,25.56-25.56h127A25.56,25.56,0,0,1,424.64,143.2Z"/><path class="cls-9" d="M263.15,153V135.26h2.5l5.68,9A50.2,50.2,0,0,1,274.5,150l.05,0c-.21-2.37-.26-4.52-.26-7.28v-7.41h2.16V153h-2.31l-5.63-9a56.34,56.34,0,0,1-3.31-5.92l-.08,0c.13,2.23.18,4.36.18,7.31V153Z"/><path class="cls-9" d="M289.52,153l-.18-1.6h-.08a4.74,4.74,0,0,1-3.89,1.89,3.63,3.63,0,0,1-3.89-3.65c0-3.08,2.73-4.76,7.65-4.73v-.26a2.62,2.62,0,0,0-2.89-2.94,6.34,6.34,0,0,0-3.31.95l-.53-1.52a7.9,7.9,0,0,1,4.18-1.13c3.89,0,4.84,2.66,4.84,5.21v4.76a17.92,17.92,0,0,0,.21,3Zm-.34-6.49c-2.52-.05-5.39.39-5.39,2.87a2,2,0,0,0,2.18,2.21,3.17,3.17,0,0,0,3.08-2.13,2.42,2.42,0,0,0,.13-.74Z"/><path class="cls-9" d="M297.25,143.7c0-1.31,0-2.39-.11-3.44h2l.11,2.05h.08a4.39,4.39,0,0,1,4-2.34,3.76,3.76,0,0,1,3.6,2.55H307a5.24,5.24,0,0,1,1.42-1.66,4.34,4.34,0,0,1,2.81-.89c1.68,0,4.18,1.1,4.18,5.52V153h-2.26v-7.2c0-2.45-.89-3.92-2.76-3.92a3,3,0,0,0-2.73,2.1,3.8,3.8,0,0,0-.18,1.16V153h-2.26v-7.62c0-2-.89-3.5-2.66-3.5a3.45,3.45,0,0,0-3,3.44V153h-2.26Z"/><path class="cls-9" d="M328.32,153l-.18-1.6h-.08a4.74,4.74,0,0,1-3.89,1.89,3.63,3.63,0,0,1-3.89-3.65c0-3.08,2.73-4.76,7.65-4.73v-.26a2.62,2.62,0,0,0-2.89-2.94,6.34,6.34,0,0,0-3.31.95l-.53-1.52a7.9,7.9,0,0,1,4.18-1.13c3.89,0,4.84,2.66,4.84,5.21v4.76a17.92,17.92,0,0,0,.21,3Zm-.34-6.49c-2.52-.05-5.39.39-5.39,2.87a2,2,0,0,0,2.18,2.21,3.17,3.17,0,0,0,3.08-2.13,2.42,2.42,0,0,0,.13-.74Z"/><path class="cls-9" d="M335.74,150.61a6.07,6.07,0,0,0,3,.92c1.68,0,2.47-.84,2.47-1.89s-.66-1.71-2.37-2.34c-2.29-.81-3.37-2.08-3.37-3.6,0-2.05,1.66-3.73,4.39-3.73a6.35,6.35,0,0,1,3.13.79l-.58,1.68a5,5,0,0,0-2.6-.74c-1.37,0-2.13.79-2.13,1.74s.76,1.52,2.42,2.16c2.21.84,3.34,1.95,3.34,3.84,0,2.23-1.73,3.81-4.76,3.81a7.26,7.26,0,0,1-3.58-.87Z"/><path class="cls-9" d="M351.36,136.6v3.65h3.31V142h-3.31v6.86c0,1.58.45,2.47,1.74,2.47a5.16,5.16,0,0,0,1.34-.16l.1,1.73a5.66,5.66,0,0,1-2.05.32,3.21,3.21,0,0,1-2.5-1,4.71,4.71,0,0,1-.89-3.31V142h-2v-1.76h2v-3Z"/><path class="cls-9" d="M360.51,147c.05,3.13,2.05,4.42,4.36,4.42a8.37,8.37,0,0,0,3.52-.66l.39,1.66a10.31,10.31,0,0,1-4.23.79c-3.92,0-6.26-2.58-6.26-6.41s2.26-6.86,6-6.86c4.15,0,5.26,3.65,5.26,6a8.71,8.71,0,0,1-.08,1.08Zm6.78-1.66c0-1.47-.6-3.76-3.21-3.76-2.34,0-3.37,2.16-3.55,3.76Z"/><path class="cls-9" d="M374,151.64A1.54,1.54,0,0,1,375.6,150a1.63,1.63,0,0,1,0,3.26A1.54,1.54,0,0,1,374,151.64Zm.66-3.76-.37-12.62h2.52l-.37,12.62Z"/><path class="cls-10" d="M300,296.88h71.81a0,0,0,0,1,0,0v1.49a34.7,34.7,0,0,1-34.7,34.7h-2.41a34.7,34.7,0,0,1-34.7-34.7v-1.49A0,0,0,0,1,300,296.88Z"/><g id="Layer_3" data-name="Layer 3"><path class="cls-11" d="M399.44,146.43,399,146l-.44.44V126.09l.28.28a.22.22,0,0,0,.31,0l.28-.28Z"/><path class="cls-12" d="M399.44,134.9v-8.65a1.27,1.27,0,0,1,.2-.71,1.2,1.2,0,0,1,1.95-.07l.08.1a1.21,1.21,0,0,1,.23.51l.65,7.19c.25,3.24.84,4,1.56,7.44.35,1.7-2.79,7.05-2.79,7.05s-1.3.66-1.26-2.47C400.07,144.16,399.44,134.9,399.44,134.9Z"/><path class="cls-12" d="M398.56,134.9v-8.65a1.27,1.27,0,0,0-.2-.71,1.2,1.2,0,0,0-1.95-.07l-.08.1a1.21,1.21,0,0,0-.23.51l-.65,7.19c-.25,3.24-.84,4-1.56,7.44-.35,1.7,2.79,7.05,2.79,7.05s1.3.66,1.26-2.47C397.93,144.16,398.56,134.9,398.56,134.9Z"/><path class="cls-12" d="M404.15,141.27s2,3.23,3.44,4-3.23,7.19-3.23,7.19-2.53-4.25-3.33-4.31"/><path class="cls-12" d="M401.17,148s-1.76-.13-1.72-2.85,0-9,0-9v-7.54a1,1,0,0,1,.26-.65h0a1.12,1.12,0,0,1,.31-.24,1.25,1.25,0,0,1,1.76.78l.14,2.53"/><path class="cls-12" d="M401.9,131.12a1.24,1.24,0,1,0-2.46,0v14.53c0,2.39,1.73,2.5,1.73,2.5h0a3,3,0,0,0,2.93-2.32l.17-.72a16.17,16.17,0,0,0-1.26-8.7,19.87,19.87,0,0,1-1.11-5.4"/><path class="cls-12" d="M396.1,131.12a1.24,1.24,0,1,1,2.46,0v14.53c0,2.39-1.73,2.5-1.73,2.5h0a3,3,0,0,1-2.93-2.32l-.17-.72a16.17,16.17,0,0,1,1.26-8.7,19.87,19.87,0,0,0,1.11-5.4"/><path class="cls-12" d="M393.85,141.27s-2,3.23-3.44,4,3.23,7.19,3.23,7.19,2.53-4.25,3.33-4.31"/><polygon class="cls-13" points="408.28 144.87 402.6 150.95 404.39 152.99 413 152.99 413 148.75 408.28 144.87"/><path class="cls-12" d="M396.83,148s1.76-.13,1.72-2.85,0-9,0-9v-7.54a1,1,0,0,0-.26-.65h0a1.12,1.12,0,0,0-.31-.24,1.25,1.25,0,0,0-1.76.78L396.1,131"/><path class="cls-14" d="M401.29,128.12c-.71-1-2.29-.62-2.29,1.25"/><path class="cls-14" d="M401.47,126.09a1.29,1.29,0,0,0-2.44.64"/><path class="cls-14" d="M396.51,126.09c.42-1.08,2.24-.9,2.52.67"/><path class="cls-14" d="M399,129.38c0-1.89-1.63-2.3-2.32-1.21"/><polygon class="cls-13" points="389.84 144.87 395.58 150.95 393.85 152.99 385 152.99 385 148.75 389.84 144.87"/><path class="cls-14" d="M399,133.53c0-2.05-1.91-2.35-2.47-.9"/><path class="cls-14" d="M401.53,132.79c-.48-1.63-2.53-1.38-2.53.74"/><path class="cls-14" d="M396.42,148.23s2.58.55,2.58-2.5"/><path class="cls-14" d="M401.6,148.23s-2.58.55-2.58-2.5"/></g></svg>